# xmcd
#
# Track frame offsets:
# 150
# 14393
# 28334
# 50357
# 64600
# 80889
# 93312
# 108459
# 120212
# 134207
# 147559
# 163493
# 177997
# 195040
# 207183
#
# Disc length: 2899 seconds
#
#
# Revision: 0
# Processed by: cddbd v1.5.2PL0 Copyright (c) Steve Scherf et al.
# Submitted via: Nero 7, 11, 10, 0 
#
DISCID=d90b510f
DTITLE=Westsideblues - Westsideblues
DYEAR=2011
DGENRE=Blues
TTITLE0=It Hurts To Be In Love
TTITLE1=The Golden Rule
TTITLE2=Every Night About This Time
TTITLE3=Down The Road
TTITLE4=I'm A Loser
TTITLE5=Something's Wrong Baby
TTITLE6=Not Of The Talking Kind
TTITLE7=It's Your Voodoo Working
TTITLE8=Keep It To Yourself
TTITLE9=I'm Your Boogie Man
TTITLE10=I Can't Go On
TTITLE11=Yeah Yeah Yeah
TTITLE12=Hung Down Head
TTITLE13=Bad Mouthin'
TTITLE14=Walk Ginny Walk
EXTD=
EXTT0=It Hurts To Be In Love
EXTT1=The Golden Rule
EXTT2=Every Night About This Time
EXTT3=Down The Road
EXTT4=I'm A Loser
EXTT5=Something's Wrong Baby
EXTT6=Not Of The Talking Kind
EXTT7=It's Your Voodoo Working
EXTT8=Keep It To Yourself
EXTT9=I'm Your Boogie Man
EXTT10=I Can't Go On
EXTT11=Yeah Yeah Yeah
EXTT12=Hung Down Head
EXTT13=Bad Mouthin'
EXTT14=Walk Ginny Walk
PLAYORDER=
